HIERARCHY
ROOT tri_prism_large
{
	OFFSET 0.000000 0.000000 0.000000
	CHANNELS 6 Xposition Yposition Zposition Yrotation Xrotation Zrotation
	End Site
	{
		OFFSET 0.000000 0.000000 0.000000
	}
}
MOTION
Frames: 167
Frame Time: 0.008333334
-2.073717 3.117190 3.920296 -28.615660 7.606281 8.333008 
-2.079312 3.115366 3.932373 -29.216610 8.114914 8.401731 
-2.091660 3.113481 3.943861 -29.940220 8.754959 8.734818 
-2.108433 3.110463 3.953430 -30.960170 9.335135 9.248740 
-2.124956 3.108689 3.959905 -32.029390 9.844330 9.777499 
-2.140880 3.106251 3.963149 -33.060490 10.272550 10.442370 
-2.156738 3.103300 3.964746 -34.141660 10.463500 10.905600 
-2.172224 3.100672 3.964582 -35.102360 10.906420 11.661010 
-2.186384 3.097881 3.964111 -36.173890 11.236730 12.387140 
-2.200619 3.095173 3.966118 -37.377290 11.543000 13.015670 
-2.214933 3.091887 3.969700 -38.532840 11.939180 13.381340 
-2.228121 3.090188 3.977807 -39.658140 12.699750 13.792250 
-2.241776 3.088723 3.989982 -40.664790 13.214420 13.974260 
-2.254968 3.088190 4.006744 -41.489990 14.033890 14.047300 
-2.269608 3.088332 4.026917 -42.207430 14.805560 13.991190 
-2.286122 3.088646 4.050077 -42.835360 15.738280 14.182960 
-2.303591 3.088334 4.072751 -43.516140 16.602230 14.357580 
-2.323035 3.087800 4.094370 -44.202640 17.693460 14.718880 
-2.342227 3.086094 4.116410 -44.987820 18.776740 15.112630 
-2.363080 3.085949 4.141217 -45.914610 19.943180 15.285960 
-2.383859 3.085830 4.169417 -46.923190 21.481670 15.235680 
-2.406804 3.084992 4.200762 -48.098850 23.296540 14.942010 
-2.431134 3.084298 4.232155 -49.343840 25.134510 14.530280 
-2.454125 3.082345 4.261586 -50.532070 27.049540 14.085930 
-2.477555 3.079746 4.289133 -51.728300 28.769820 13.763170 
-2.499017 3.076245 4.313747 -52.794800 30.394560 13.493500 
-2.518075 3.073828 4.336178 -53.866390 31.854180 13.110800 
-2.534917 3.072455 4.358792 -55.016540 33.185790 12.677880 
-2.549721 3.072945 4.381250 -56.200530 34.423460 12.103060 
-2.563606 3.074716 4.403615 -57.256410 35.705520 11.506070 
-2.578128 3.075571 4.424896 -58.613490 37.001380 10.763150 
-2.591074 3.077956 4.444345 -59.969970 38.212160 9.947772 
-2.604248 3.079936 4.461006 -61.580690 39.472580 8.931230 
-2.616631 3.083059 4.475661 -62.980530 40.517440 8.130833 
-2.628735 3.087048 4.489182 -64.105320 41.585120 7.452075 
-2.640141 3.091302 4.501858 -65.157410 42.253760 6.671887 
-2.653004 3.095981 4.514119 -65.828220 43.075640 6.244438 
-2.666126 3.098983 4.524645 -66.426270 43.732220 5.802572 
-2.681089 3.102018 4.534844 -66.947300 44.712860 5.350458 
-2.697773 3.102036 4.545477 -68.014890 45.741640 4.556795 
-2.715166 3.102631 4.555937 -69.164920 46.819440 3.723849 
-2.732114 3.103273 4.566856 -70.590480 47.978690 2.472098 
-2.749911 3.103428 4.578447 -72.427150 49.142060 1.012617 
-2.765429 3.105148 4.590868 -74.206790 50.296300 -0.580902 
-2.779986 3.108015 4.602718 -76.202940 51.143050 -2.382233 
-2.794287 3.112872 4.614307 -78.071500 51.949020 -4.207153 
-2.806640 3.118169 4.626466 -79.302950 52.430870 -5.513092 
-2.818820 3.124140 4.639759 -79.759700 52.880840 -6.412781 
-2.830974 3.130716 4.652554 -79.764250 53.229640 -7.013763 
-2.842280 3.136259 4.663095 -79.306180 53.522670 -7.091370 
-2.852847 3.142154 4.669637 -79.086550 53.719980 -7.163177 
-2.863186 3.149574 4.673230 -78.872070 53.832640 -6.911499 
-2.870608 3.157627 4.673835 -78.554660 54.021300 -6.699829 
-2.877956 3.167510 4.672040 -78.544310 54.137620 -6.719696 
-2.883979 3.176516 4.670060 -78.452450 54.109590 -6.492249 
-2.890582 3.185250 4.665094 -78.377350 54.133130 -6.172821 
-2.898277 3.193667 4.660889 -77.922150 54.203160 -5.668854 
-2.906166 3.200128 4.656065 -77.199280 54.235530 -4.831360 
-2.915246 3.206800 4.652049 -76.436710 54.176800 -3.964447 
-2.924704 3.211341 4.648936 -75.440800 54.373740 -3.025085 
-2.935339 3.214776 4.647948 -74.647950 54.508720 -2.291473 
-2.944883 3.218239 4.649445 -73.954830 54.846730 -1.830231 
-2.954806 3.220034 4.653215 -73.355900 55.194080 -1.517365 
-2.964447 3.221255 4.658711 -72.810360 55.570920 -1.290588 
-2.976327 3.220000 4.665078 -72.604980 56.049840 -1.161346 
-2.989082 3.217112 4.671595 -71.557920 56.807010 -0.578217 
-3.005034 3.208892 4.679379 -70.626830 57.622990 0.096116 
-3.021653 3.197175 4.688844 -69.309780 58.787340 1.011969 
-3.041550 3.180888 4.696500 -68.168430 60.003250 1.936325 
-3.062542 3.160600 4.703891 -66.916320 61.463660 2.986461 
-3.084255 3.137332 4.709931 -65.122250 63.001010 4.560015 
-3.106754 3.112373 4.714811 -63.658290 64.497490 6.186598 
-3.128379 3.088019 4.719279 -62.192570 65.922070 7.621488 
-3.146983 3.066459 4.722801 -60.906010 67.199360 8.975005 
-3.164641 3.047955 4.727403 -59.630160 68.133870 10.237010 
-3.179970 3.032561 4.732450 -57.989350 68.717450 11.684040 
-3.193343 3.020080 4.735995 -56.355740 69.232100 12.994890 
-3.205546 3.009521 4.738391 -54.152650 69.523640 14.932340 
-3.216597 2.999968 4.737380 -51.691440 69.538950 17.080740 
-3.226529 2.991890 4.734416 -49.050960 69.401700 19.439370 
-3.234056 2.985436 4.730154 -46.547940 69.092440 21.649860 
-3.240268 2.982610 4.724280 -44.553340 68.617450 23.512920 
-3.244653 2.981052 4.717640 -42.498720 67.984370 25.473110 
-3.248155 2.981107 4.709473 -41.391690 67.250310 26.394230 
-3.249826 2.981509 4.700679 -40.607060 66.451710 27.206010 
-3.252155 2.981076 4.690483 -39.954280 65.834470 27.951670 
-3.254477 2.979424 4.680940 -39.374210 65.158450 28.785030 
-3.257115 2.975377 4.671824 -38.740810 64.654790 29.540980 
-3.260405 2.970238 4.664470 -37.755580 64.253620 30.430120 
-3.263114 2.964519 4.660057 -37.285640 63.933070 31.060820 
-3.266076 2.958553 4.658097 -36.150630 63.628140 32.006670 
-3.267412 2.952405 4.656523 -35.604740 63.443960 32.438130 
-3.269965 2.947212 4.654509 -35.164580 63.445110 32.790650 
-3.272180 2.941782 4.652205 -35.023470 63.303360 33.098190 
-3.274712 2.937100 4.648897 -34.863190 63.128360 33.467600 
-3.276675 2.931866 4.645481 -34.415590 62.985100 33.968500 
-3.277967 2.926142 4.643939 -34.046170 62.804950 34.503770 
-3.280998 2.918862 4.643802 -33.160520 62.475000 35.368840 
-3.283504 2.910012 4.647420 -31.681730 62.149880 36.774340 
-3.286816 2.899606 4.651365 -29.947940 62.179180 38.258500 
-3.291574 2.887990 4.655878 -28.830230 62.132620 39.270920 
-3.295502 2.876711 4.659450 -27.499450 62.254760 40.396690 
-3.299627 2.866251 4.662708 -26.182650 62.422430 41.668800 
-3.300361 2.859418 4.665215 -25.001860 62.597560 42.630910 
-3.300103 2.854831 4.667660 -24.152010 62.558280 43.376490 
-3.299371 2.853582 4.667905 -23.439390 62.364610 43.961610 
-3.297356 2.854146 4.668534 -23.065190 62.000220 44.337070 
-3.293408 2.856843 4.666293 -22.651120 61.501540 44.766160 
-3.288450 2.860461 4.664304 -22.309720 60.973040 44.969960 
-3.284815 2.864387 4.661662 -22.099980 60.432120 45.128240 
-3.281786 2.868249 4.659068 -22.036440 59.983550 45.192120 
-3.278733 2.871599 4.657423 -21.485140 59.667810 45.709560 
-3.276695 2.872698 4.655157 -20.820370 59.306210 46.188150 
-3.275322 2.872413 4.653563 -20.045380 59.078370 47.027660 
-3.273280 2.872150 4.649754 -19.074190 58.768530 47.992510 
-3.272463 2.870990 4.645827 -18.334590 58.312820 48.697900 
-3.271651 2.870575 4.640376 -17.005460 57.939610 49.912320 
-3.271280 2.869047 4.636122 -16.137910 57.373320 50.792500 
-3.270654 2.867740 4.631392 -14.964050 56.871570 51.928380 
-3.270191 2.866658 4.627964 -14.220060 56.553590 52.714180 
-3.269356 2.866971 4.624842 -13.838380 56.421750 53.124780 
-3.268571 2.867319 4.623641 -13.663240 56.400560 53.292520 
-3.268160 2.867543 4.623498 -13.389040 56.523070 53.452450 
-3.267772 2.866954 4.623145 -12.866300 56.585390 53.685360 
-3.268801 2.865495 4.622739 -12.393980 56.497710 54.111630 
-3.270087 2.865039 4.622506 -11.892700 56.455960 54.526290 
-3.271211 2.864246 4.622943 -11.465940 56.492220 54.860760 
-3.273667 2.862401 4.623806 -10.998020 56.466460 55.129940 
-3.276313 2.859845 4.624643 -10.201970 56.522570 55.818900 
-3.279976 2.856597 4.625161 -9.937531 56.526250 56.131020 
-3.283198 2.853182 4.624458 -9.419464 56.712590 56.742100 
-3.287998 2.847682 4.622348 -9.005798 56.954120 57.567660 
-3.292675 2.842457 4.619857 -8.694305 57.077820 58.248170 
-3.297823 2.835757 4.614770 -8.092407 57.285110 59.179160 
-3.303060 2.830079 4.608364 -7.636566 57.095300 60.303430 
-3.308891 2.823915 4.600009 -7.101013 56.590010 61.378380 
-3.315098 2.818218 4.588879 -6.500549 56.056110 62.695820 
-3.320553 2.813366 4.575514 -6.396210 55.416540 63.827420 
-3.324090 2.808778 4.558913 -6.581451 54.672870 64.692680 
-3.325968 2.806095 4.539526 -7.035858 54.167980 65.326060 
-3.327039 2.806485 4.518422 -7.846313 53.521410 65.724320 
-3.325038 2.808522 4.497079 -9.187195 52.917710 65.533240 
-3.322255 2.813107 4.474861 -10.640990 52.282090 65.193310 
-3.318125 2.818324 4.453558 -12.308320 51.620360 64.639880 
-3.313073 2.823489 4.432096 -13.635350 50.855680 64.373910 
-3.307294 2.828173 4.412641 -15.233340 50.198760 63.841010 
-3.301304 2.832259 4.394214 -16.427250 49.726420 63.524930 
-3.294912 2.834836 4.379716 -17.456270 49.592930 63.357460 
-3.290657 2.837169 4.368712 -18.147920 49.629080 63.049270 
-3.286704 2.837698 4.361009 -18.494140 49.817120 63.099190 
-3.284354 2.837332 4.357632 -18.616490 50.022460 63.150230 
-3.283234 2.835062 4.354995 -18.685240 50.396590 63.308770 
-3.283288 2.831194 4.355028 -18.577030 50.838560 63.599290 
-3.282861 2.825158 4.355179 -18.464480 51.366050 63.795670 
-3.283463 2.818473 4.354299 -18.306030 51.995350 64.245140 
-3.283847 2.809789 4.353662 -17.846740 52.628890 65.044650 
-3.283775 2.799577 4.352859 -17.407810 53.023520 65.703470 
-3.283636 2.786587 4.352843 -17.000850 53.367760 66.623950 
-3.283548 2.770199 4.351799 -15.995330 53.444730 67.766240 
-3.283409 2.751319 4.350445 -15.122800 53.474070 69.026040 
-3.284227 2.728693 4.351846 -14.077940 53.471030 70.460440 
-3.284594 2.705220 4.352288 -12.684480 53.632870 72.007440 
-3.285737 2.679200 4.354170 -11.455200 53.537660 73.540410 
-3.287546 2.652943 4.354480 -10.010470 53.598270 75.207570 
-3.288479 2.627928 4.353852 -8.487000 53.725110 77.189750 
-3.290450 2.603641 4.352519 -7.699951 53.732020 78.182900 
-3.291028 2.583097 4.349907 -6.648438 53.839810 79.753030 
